PathFileType	4	(X/Y/Z)	Patient4_TMGait_0pt3_01_left_03.trc.trc
DataRate	CameraRate	NumFrames	NumMarkers	Units	OrigDataRate	OrigDataStartFrame	OrigNumFrames
53.231939163498	53.231939163498	5	33	mm	53.231939163498	18	       141
Frame#	Time	Sacral			L.Shoulder			Chest			R.Shoulder			Neck			R.ASIS			L.ASIS			R.Thigh.Superior			R.Thigh.Lateral			R.Thigh.Inferior			R.Patella			L.Thigh.Superior			L.Thigh.Lateral			L.Thigh.Inferior			L.Patella			L.Shank.Superior			L.Shank.Lateral			L.Shank.Inferior			R.Shank.Superior			R.Shank.Lateral			R.Shank.Inferior			R.Heel			R.Midfoot.Superior			R.Midfoot.Lateral			R.Toe			L.Heel			L.Midfoot.Lateral			L.Midfoot.Superior			L.Toe			L.Elbow			L.Wrist			R.Elbow			R.Wrist			
		X1	Y1	Z1	X2	Y2	Z2	X3	Y3	Z3	X4	Y4	Z4	X5	Y5	Z5	X6	Y6	Z6	X7	Y7	Z7	X8	Y8	Z8	X9	Y9	Z9	X10	Y10	Z10	X11	Y11	Z11	X12	Y12	Z12	X13	Y13	Z13	X14	Y14	Z14	X15	Y15	Z15	X16	Y16	Z16	X17	Y17	Z17	X18	Y18	Z18	X19	Y19	Z19	X20	Y20	Z20	X21	Y21	Z21	X22	Y22	Z22	X23	Y23	Z23	X24	Y24	Z24	X25	Y25	Z25	X26	Y26	Z26	X27	Y27	Z27	X28	Y28	Z28	X29	Y29	Z29	X30	Y30	Z30	X31	Y31	Z31	X32	Y32	Z32	X33	Y33	Z33	

18	5.209357142857	798.519935313673	992.075658403792	563.382490494665	949.232822360539	1417.705982932669	356.553437497078	1070.865094593796	1355.673236934719	506.363757991954	1007.278339458940	1433.472609112329	686.639657493440	954.340310765044	1483.877632240735	512.269252570586	1038.579559146778	929.186258845952	656.932523320859	998.961837715865	954.242087603278	385.237642167721	1061.377237841267	721.674286013914	616.055478119844	975.574539182501	611.973263975803	673.457463109061	1042.433901713712	559.457046073466	586.457819733211	1033.471103140356	464.755497203377	588.648254151317	1086.400694312926	773.048749598373	423.150791243715	1043.990264343178	643.609059766431	345.413227235666	1140.466519603564	585.128649344602	414.958424785328	1164.358397786361	509.927100839242	407.359224525218	1131.728751715836	435.472136536159	392.222999827230	1038.136087458855	326.257789595022	335.968453428435	1099.500698561419	208.066175475840	387.338519753758	983.486728160519	381.528998294472	593.777431538057	892.768919043128	292.326953093394	652.819953811592	910.626667709309	193.941617784604	587.098891666104	748.972546753601	45.054740791996	551.645655842708	918.586549756265	95.798673032965	596.987610829101	826.805601117337	37.561477435899	631.106406172181	1035.106312356857	40.979787550793	635.833697752818	979.473319315995	45.562563458912	419.971078806605	1051.174403414225	44.360970203950	338.128859561453	1133.939735737687	108.867003415427	362.053828900421	1260.195978478276	62.204630677381	328.424662786541	842.362652463602	1074.104067307208	272.326262362170	835.264718321377	815.218826801271	280.242143396886	1109.924161581474	1107.129172440864	811.986340713267	1359.654921226865	1107.842391728242	763.834177433918	
19	5.228142857143	799.723691320591	993.726201559362	562.592211346228	947.424858505240	1418.771967028741	354.003933221940	1071.301265658406	1356.738001858889	502.015574848192	1010.370870164815	1435.050899926574	682.973849329027	954.750358749175	1484.862460323454	509.540755813889	1039.954555229586	929.869694138708	654.091001911453	998.685152295220	955.227758658879	382.675195189057	1058.923837632750	721.247775370262	614.081733652839	971.418057260063	612.996147056386	672.490471520383	1036.810561627659	559.204437263152	585.461655862462	1026.342357382657	465.210775366638	587.862649874115	1085.213271973580	773.129197164122	420.270517786691	1041.299170380776	643.846909147116	342.780963407907	1137.539076522012	584.942396676369	411.972449458365	1161.394000054330	510.936238174588	405.039598195152	1130.751257886982	436.519282225497	390.268899054889	1041.199024177318	324.350712707976	333.029577752254	1105.297066675772	208.052300645074	385.762523636302	976.823100097747	382.191905452173	593.342950481153	886.545437535505	292.864584050732	652.763762248080	904.521015446997	194.402157464691	587.107540142517	743.217250958257	45.121323473605	551.834515933527	912.895545290677	95.842617931588	597.181027860547	821.122750859195	37.541581354288	631.310218607095	1029.403770125035	40.961609248053	635.844052560974	988.661557847165	43.878991099228	417.250461810690	1062.074120260347	42.562044485287	336.837525525006	1143.578035901942	108.211295991832	361.742610916007	1271.158298629746	62.489858981705	331.332536064857	830.189740749361	1078.874652293171	271.868652837453	816.517021906971	820.494794593297	280.750555130433	1119.764129849448	1111.495898491678	806.867862595263	1366.780418717728	1126.557687753875	750.422803217236	
20	5.246928571429	801.006964573275	994.956946745891	561.446535104566	945.957091487231	1419.446880594428	351.172932903148	1071.836944742768	1357.416539590632	497.540184535409	1013.307356569490	1436.223588300825	679.060127422074	955.284006895327	1485.488556342838	506.510785323393	1041.409680017503	930.248465216038	651.047016518454	998.575595844476	955.787695084278	379.897045888446	1056.791578886039	720.658729955886	611.997833279951	967.643160947005	613.806985687704	671.381168272452	1031.652194208141	558.795503094304	584.396009297467	1019.705922206508	465.464490567120	587.014215661308	1084.143147898322	772.658627720773	416.976334803567	1038.560020799319	643.550093880581	339.976301048750	1134.759390676978	584.214034683145	408.697141598675	1158.282477240197	511.229131456548	402.510998153140	1129.352471522953	436.911501779904	388.146821213492	1043.212686409779	322.318767109041	330.214064260157	1109.485211846621	207.711159359750	384.272098460062	970.582463812438	382.653347027121	592.819401878580	880.604487801642	293.320953712561	652.631138204595	898.587015567048	194.755768295526	587.069125200352	737.463064605524	45.196908230634	552.009537725678	907.218611529634	95.876412790744	597.341209678882	815.441984105295	37.517657755067	631.488660361579	1023.710577329926	40.932814048326	635.855342657446	995.492747094968	42.507272148521	414.877433344729	1070.380947450578	40.985959529618	335.695853214689	1150.938114831507	107.328103761706	361.503091564765	1279.522675170402	62.112683266219	333.894976214818	819.690962722392	1083.102061907121	271.339964700720	799.829085976104	825.253350564426	280.993574718217	1129.319633101853	1115.540703427588	801.497754366522	1372.792089681903	1144.081005138524	737.412124749984	
21	5.265714285714	802.342529676072	995.717489396522	559.950324478272	944.819189110663	1419.668844011221	348.032795664840	1072.458363094681	1357.672147605012	492.935544215214	1016.057197356766	1436.955129819350	674.903670756030	955.931585425712	1485.725781831337	503.144733237134	1042.930833535233	930.298169276686	647.816561204208	998.598659171757	955.888694106835	376.915745587150	1055.062636441518	719.895152105906	609.791734530204	964.372907115181	614.356894912817	670.091488726556	1027.115320871595	558.208853227083	583.214110674008	1013.745790213663	465.458574325898	586.051723532323	1083.274212318213	771.719126598953	413.326869223303	1035.910797583022	642.756644213658	337.092334724168	1132.309414387607	583.032428874778	405.196690024971	1155.211089573624	510.853844833456	399.851545156121	1127.692123917732	436.656713281688	385.923689440161	1044.201533221146	320.201012537114	327.617909065463	1112.035237560011	207.015829538495	382.938935682681	964.904087659853	382.872793966940	592.168489660899	875.039239122982	293.692853989154	652.392694410267	892.886348517042	194.992605794023	586.966461839684	731.719172284768	45.313702271071	552.175084980346	901.577606913068	95.908260008339	597.462507646903	809.770572228694	37.512545210930	631.641043661387	1018.032834345446	40.886699228161	635.868863011421	999.855260820444	41.375166587338	412.961987187207	1075.922717463902	39.621355333725	334.750025507904	1155.854210084813	106.236069035118	361.369123892138	1285.134535588481	61.155169585987	336.015225466558	810.925916452677	1086.571928806479	270.679886270900	785.292143103153	829.249822821379	280.911284487427	1138.481207849448	1119.149444838613	795.874297989695	1377.802202506331	1160.162395546454	724.902398253734	
22	5.284500000000	803.703063662874	996.026608699647	558.112356972983	943.994473947588	1419.436331172299	344.565128887251	1073.156128944844	1357.523905017637	488.196960388823	1018.611024354366	1437.270598941368	670.509004936924	956.687239237797	1485.596755420922	499.418753235648	1044.498826578377	930.042689686799	644.421929217602	998.730534834411	955.564718538179	373.748680293007	1053.779648033651	718.976059217109	607.454785853646	961.681001276790	614.638516362595	668.593643773991	1023.301120177994	557.451563699502	581.878978196808	1008.588771756887	465.171749754672	584.940351774961	1082.685058035086	770.450237145888	409.416078857892	1033.489760038009	641.569375156897	334.216662325800	1130.326784369931	581.531609965284	401.552284391665	1152.347098489237	509.923373474106	397.143245180776	1125.926337722508	435.828757635340	383.667531583981	1044.253735084913	318.074211452835	325.293460680186	1113.000621047754	205.997288539198	381.808397328473	959.879143171423	382.847858153131	591.366869150688	869.908765665170	294.003718281308	652.029964127674	887.464347306353	195.130792325842	586.791907164566	725.997159982312	45.523671395306	552.337191121154	895.999516795113	95.952858115162	597.546781889346	804.118016675828	37.561241682260	631.770513017182	1012.376814135365	40.815019437219	635.886086590989	1001.769950997744	40.437932084851	411.552829057549	1078.693751300738	38.472597186332	334.016829451056	1158.300309043086	104.995451047022	361.354153200595	1287.998229605064	59.760325941063	337.641764740958	803.883175791882	1089.161338875999	269.812607198088	773.001528077755	832.328297724619	280.436887760911	1147.129441382404	1122.261334054809	790.005998877490	1381.921287977591	1174.633831394044	712.962591759015	
